<svg width="372" height="328" viewBox="0 0 372 328" fill="none" xmlns="http://www.w3.org/2000/svg">
<path d="M165.378 5.80052C166.257 5.38422 166.928 5.11823 167.39 5.00256C169.54 4.56297 171.24 5.07142 172.488 6.52793C173.321 7.49893 173.726 9.31393 173.703 11.9729C173.726 12.4585 173.703 13.1521 173.634 14.0539C173.52 24.9905 172.215 35.881 169.719 46.7254C168.98 50.4481 167.894 54.7489 166.461 59.6278C162.925 71.4203 158.14 82.346 152.106 92.4047L150.269 95.6651L151.517 95.3528C154.939 94.4968 159.795 94.4615 166.084 95.2468C167.726 95.5241 168.523 95.5702 168.477 95.3853C168.616 95.154 168.638 91.3158 168.545 83.8706C168.544 75.6162 168.728 71.0496 169.098 70.1709C169.237 69.9397 169.41 69.6507 169.618 69.3038C171.051 67.1764 172.912 65.9738 175.201 65.6961C176.543 65.5572 177.618 65.7304 178.427 66.2159C179.884 66.9325 180.728 68.1463 180.959 69.8572C180.867 70.2734 180.891 74.6897 181.03 83.106L180.928 95.6611L182.038 95.3835C183.888 94.9208 185.587 94.2501 187.136 93.3712C188.361 92.7699 189.124 92.4808 189.425 92.5039C189.749 92.6194 190.581 93.1974 191.922 94.2377C193.772 95.7403 194.478 96.7923 194.038 97.3935C193.738 97.7635 193.033 98.2838 191.923 98.9545C188.293 101.337 185.045 102.886 182.178 103.603L180.929 103.916L180.965 113.488C180.943 119.291 180.851 122.852 180.689 124.17C179.973 127.199 178.088 129.095 175.036 129.859C172.701 130.345 170.898 129.813 169.626 128.264C168.909 127.363 168.539 125.293 168.515 122.056C168.492 120.784 168.503 118.276 168.549 114.53L168.547 103.917C168.524 103.825 167.507 103.686 165.495 103.501C160.709 102.831 156.986 102.682 154.327 103.052C151.46 103.376 148.328 104.209 144.929 105.55C143.426 106.221 142.224 107.111 141.322 108.221C140.351 109.447 139.681 110.106 139.311 110.199C138.848 110.314 137.808 109.69 136.189 108.326C134.871 107.378 134.166 106.719 134.073 106.349C133.796 105.24 134.547 103.725 136.327 101.806C136.489 101.667 136.651 101.528 136.813 101.389C138.038 100.395 140.038 97.5856 142.812 92.9608C152.729 76.4275 158.622 56.3802 160.492 32.8189C160.977 27.2927 161.253 20.9342 161.322 13.7434C161.391 10.0901 162.743 7.44251 165.378 5.80052Z" fill="#115BC9"/>
<path d="M273.344 130.927C185.581 181.6 183.926 253.223 179.181 314.295L201.176 314.977L203.545 287.727C209.139 287.925 214.811 287.638 218.585 286.449C333.919 250.145 309.266 62 309.266 62C305.382 86.2703 232.813 111.995 183.689 138.982C134.565 165.969 127.622 217.13 134.223 238.1C140.824 259.07 164.948 271.643 164.948 271.643C168.495 163.931 273.344 130.927 273.344 130.927Z" fill="#115BC9"/>
<path d="M56.0629 143.108C65.3859 222.184 116.565 245.617 159.17 268.005L166.491 252.342L147.559 242.171C149.439 238.195 150.993 234.012 151.307 230.919C160.916 136.406 17.4695 95.7801 17.4695 95.7801C33.7803 106.119 29.814 166.483 34.0388 210.317C38.2636 254.151 73.0333 275.048 90.2176 276.795C107.402 278.541 123.967 265.034 123.967 265.034C47.3281 229.03 56.0629 143.108 56.0629 143.108Z" fill="#115BC9"/>
<path d="M75 130.5C84 116.167 101.4 81.3 99 56.5C110.833 92 130.5 164.5 114.5 170.5C98.5 176.5 81.5 146.333 75 130.5Z" fill="#115BC9"/>
<path d="M231 132.5C235 125.5 241 88.4 229 60C226.5 75.5 216.7 126 201.5 140L231 132.5Z" fill="#115BC9" stroke="#115BC9" stroke-width="2"/>
</svg>
